<svg version="1.1" id="Layer_1" xmlns="http://www.w3.org/2000/svg" xmlns:xlink="http://www.w3.org/1999/xlink" x="0px" y="0px"
	 width="100%" viewBox="0 0 432 432" enable-background="new 0 0 432 432" xml:space="preserve">
<path fill="#000000" opacity="1.000000" stroke="none" 
	d="
M219.234070,321.900940 
	C217.292648,351.491333 217.201126,380.641968 217.153091,409.794281 
	C217.141891,416.592102 211.909729,419.859894 205.736465,417.011353 
	C203.583069,416.017731 203.874557,414.055298 203.857040,412.271301 
	C203.788361,405.271790 203.702301,398.270996 203.764114,391.271942 
	C203.993668,365.274811 202.694443,339.313568 201.465164,313.368561 
	C200.822433,299.803314 200.558167,286.150848 198.424561,271.628174 
	C170.294632,307.384613 146.368423,344.872528 123.073555,384.372223 
	C113.713829,370.520264 104.306786,358.140625 93.175232,347.214508 
	C82.138367,336.381348 69.797386,327.114716 56.212799,317.572266 
	C94.566711,294.948883 130.932617,271.384247 165.865326,244.540527 
	C161.566360,242.305283 157.989578,244.122498 154.671234,244.603943 
	C117.135201,250.050079 79.981232,257.434967 43.353874,267.359375 
	C42.711521,267.533447 42.079227,267.744965 41.435886,267.915009 
	C37.941589,268.838501 36.470013,268.077118 37.276894,263.983978 
	C40.339165,248.449615 42.010139,232.763824 41.667709,216.897476 
	C41.419643,205.403397 40.155975,194.035690 37.898540,182.758072 
	C37.494339,180.738770 36.406521,178.658661 37.549458,175.457932 
	C72.811195,184.701019 108.271988,192.845840 144.630142,197.148636 
	C116.599014,174.895630 86.141685,156.438126 54.376907,137.474777 
	C81.370697,119.412247 103.725426,98.329651 121.175850,70.638618 
	C141.766663,105.527100 162.751816,138.597366 186.780670,169.772110 
	C181.869293,131.414749 173.567123,93.793076 163.536224,55.006123 
	C195.028717,61.832256 225.780060,61.199772 257.497467,54.911175 
	C245.510788,100.827866 236.726807,145.877213 230.594971,192.618439 
	C269.581390,159.872253 305.678040,125.671173 340.705414,90.882866 
	C341.604462,91.157066 341.793915,91.165474 341.918182,91.259773 
	C351.183258,98.290955 351.210876,98.517365 343.073944,106.710190 
	C311.002960,139.001541 280.192688,172.453888 250.632446,207.057755 
	C250.001144,207.796753 249.432999,208.589691 248.222076,210.145447 
	C254.601501,210.691650 260.251648,211.321960 265.919281,211.637314 
	C308.657349,214.015289 351.413452,215.925552 394.232300,215.612839 
	C399.116150,215.577164 399.117706,218.391251 398.964661,221.771973 
	C398.816711,225.039429 399.545410,228.450394 394.150085,228.459793 
	C378.324493,228.487381 362.500702,229.054260 346.674255,229.197784 
	C316.186066,229.474258 285.775543,231.422043 255.382248,233.542603 
	C250.035782,233.915634 244.395004,233.409439 239.226212,235.621384 
	C238.995270,237.779266 240.577774,238.752274 241.595688,239.959427 
	C274.165710,278.584930 308.296417,315.773773 344.163452,351.366180 
	C345.621307,352.812897 348.510895,354.151642 347.562622,356.404053 
	C346.219666,359.593872 343.419250,362.103271 340.346466,363.759430 
	C338.374390,364.822327 337.138214,362.511993 335.889679,361.314880 
	C322.417053,348.397064 309.085876,335.330414 295.528137,322.503021 
	C273.251404,301.426361 250.466415,280.908173 227.073212,261.072144 
	C226.202682,260.333984 225.227020,259.719788 223.185822,258.239624 
	C221.341476,279.851654 219.797623,300.595490 219.234070,321.900940 
z"/>
</svg>